<svg viewBox="0 0 64 64" xmlns="http://www.w3.org/2000/svg">
  <defs><linearGradient id="st" x1="0" y1="0" x2="1" y2="1"><stop offset="0%" stop-color="#1B2838"/><stop offset="100%" stop-color="#0D1A26"/></linearGradient></defs>
  <rect width="64" height="64" rx="14" fill="url(#st)"/>
  <rect x="0" y="0" width="64" height="28" rx="14" fill="rgba(255,255,255,0.05)"/>
  <path d="M32 12C21 12 12 21 12 32c0 8.7 5.5 16 13.2 19l3.5-8.7c-2.8-1-4.7-3.7-4.7-6.8 0-4 3.2-7.2 7.2-7.2 3.7 0 6.7 2.7 7.1 6.2l8.5-3.5c0.3-0.5 0.2-1.2 0.2-1.8 0-11-9-19-15-19z" fill="white" opacity="0.8"/>
  <circle cx="32" cy="34.5" r="5" fill="white" opacity="0.9"/>
  <path d="M13 36l10 5-2.5 6.5C13 44 9 38.5 9 32h3z" fill="white" opacity="0.6"/>
</svg>
